HIERARCHY
ROOT hip
{
	OFFSET 0.000000 0.000000 0.000000 
	CHANNELS 6 Xposition Yposition Zposition Xrotation Zrotation Yrotation
	JOINT abdomen
	{
		OFFSET 0.000000 3.402643 0.000000 
		CHANNELS 3 Xrotation Zrotation Yrotation
		JOINT chest
		{
			OFFSET 0.000000 8.438565 -0.680529 
			CHANNELS 3 Xrotation Zrotation Yrotation
			JOINT neck
			{
				OFFSET 0.000000 10.207942 -0.272212 
				CHANNELS 3 Xrotation Zrotation Yrotation
				JOINT head
				{
					OFFSET 0.000000 3.130431 0.000000 
					CHANNELS 3 Xrotation Zrotation Yrotation
					End Site
					{
						OFFSET 0.000000 3.130435 0.000000 
					}
				}
			}
			JOINT lCollar
			{
				OFFSET 3.470700 6.669187 -0.816635 
				CHANNELS 3 Yrotation Zrotation Xrotation
				JOINT lShldr
				{
					OFFSET 3.198488 0.000000 0.000000 
					CHANNELS 3 Zrotation Yrotation Xrotation
					JOINT lForeArm
					{
						OFFSET 10.139888 0.000000 0.000000 
						CHANNELS 3 Yrotation Zrotation Xrotation
						JOINT lHand
						{
							OFFSET 8.370511 0.000000 0.000000 
							CHANNELS 3 Zrotation Yrotation Xrotation
							End Site
							{
								OFFSET 4.083176 0.000000 0.000000 
							}
						}
					}
				}
			}
			JOINT rCollar
			{
				OFFSET -3.470700 6.669187 -0.816635 
				CHANNELS 3 Yrotation Zrotation Xrotation
				JOINT rShldr
				{
					OFFSET -3.198488 0.000000 0.000000 
					CHANNELS 3 Zrotation Yrotation Xrotation
					JOINT rForeArm
					{
						OFFSET -10.139888 0.000000 0.000000 
						CHANNELS 3 Yrotation Zrotation Xrotation
						JOINT rHand
						{
							OFFSET -8.370511 0.000000 0.000000 
							CHANNELS 3 Zrotation Yrotation Xrotation
							End Site
							{
								OFFSET -4.083176 0.000000 0.000000 
							}
						}
					}
				}
			}
		}
	}
	JOINT lThigh
	{
		OFFSET 5.308129 -1.633274 1.361059 
		CHANNELS 3 Xrotation Zrotation Yrotation
		JOINT lShin
		{
			OFFSET -2.041588 -20.007561 0.000000 
			CHANNELS 3 Xrotation Zrotation Yrotation
			JOINT lFoot
			{
				OFFSET 0.000000 -19.190928 -1.224953 
				CHANNELS 3 Xrotation Yrotation Zrotation
				End Site
				{
					OFFSET 0.000000 -2.449906 4.627600 
				}
			}
		}
	}
	JOINT rThigh
	{
		OFFSET -5.308129 -1.633274 1.361059 
		CHANNELS 3 Xrotation Zrotation Yrotation
		JOINT rShin
		{
			OFFSET 2.041588 -20.007561 0.000000 
			CHANNELS 3 Xrotation Zrotation Yrotation
			JOINT rFoot
			{
				OFFSET 0.000000 -19.190928 -1.224953 
				CHANNELS 3 Xrotation Yrotation Zrotation
				End Site
				{
					OFFSET 0.000000 -2.449906 4.627600 
				}
			}
		}
	}
}
MOTION
Frames: 13
Frame Time: 0.033333
-25.428791 50.030151 190.860550 15.477745 -1.929407 5.969732 0.000000 0.000000 0.000000 19.959053 -4.581642 -1.827801 16.132036 -4.846356 0.374093 -24.114052 1.383008 1.537118 -6.180466 -18.544790 17.312864 -44.458561 -33.455708 25.697941 -39.779011 9.435364 7.316712 18.911144 -8.310359 -27.724916 6.710320 6.436265 18.522242 43.524574 37.237755 48.999485 105.721626 -4.656219 14.499916 -43.248417 62.078949 -61.928169 -25.921810 6.121888 -5.545525 20.001780 -0.700365 -0.400198 -5.542019 0.240664 -2.416791 -19.455606 -7.896597 -6.674918 19.991295 0.341636 1.638759 -7.527512 -7.212483 8.427418 
-25.333887 50.031452 190.758286 16.144880 -2.185742 5.978485 0.000000 0.000000 0.000000 20.430470 -4.613653 -1.873198 16.583590 -4.826247 0.259880 -24.143711 1.430834 1.449556 -6.054175 -18.650604 17.807888 -43.755180 -33.796310 24.461924 -40.065926 9.429541 7.345946 19.427290 -8.270578 -28.459438 6.624572 6.436849 19.006281 42.891296 37.784088 49.004448 105.648872 -4.512509 14.349136 -44.284496 61.893562 -62.302513 -26.668903 6.142244 -5.775316 19.846222 -0.723164 -0.357736 -5.699545 0.403493 -2.506236 -20.259220 -7.898273 -6.888403 19.961649 0.341604 1.647253 -7.398320 -7.085525 8.543253 
-25.208380 50.024460 190.651718 16.713545 -2.338385 6.075210 0.000000 0.000000 0.000000 20.821901 -4.592719 -2.008537 16.838606 -4.785004 0.074446 -24.270914 1.458700 1.392257 -6.063202 -18.717489 18.193880 -43.250675 -34.148453 23.278584 -39.947124 9.433159 7.333329 19.786858 -8.298866 -28.947226 6.449844 6.451361 19.380405 42.229347 38.385281 48.951107 105.551643 -4.326935 14.152088 -45.270592 61.763420 -62.637997 -27.335835 5.965882 -6.098215 19.738840 -0.742644 -0.336390 -5.839008 0.655113 -2.598982 -20.960974 -8.073433 -7.197320 20.059250 0.341680 1.651357 -7.353674 -6.881928 8.668709 
-25.069139 50.006001 190.560333 17.134136 -2.361175 6.078767 0.000000 0.000000 0.000000 21.166628 -4.645981 -2.148373 16.977947 -4.836109 -0.096029 -24.466434 1.476408 1.344625 -6.074634 -18.855259 18.529207 -42.854710 -34.446171 22.119083 -39.541382 9.442630 7.291361 19.854179 -8.347501 -29.053360 6.291101 6.385742 19.724380 41.673214 38.962448 48.898117 105.418816 -4.221515 13.927190 -45.897114 61.868809 -62.811989 -27.808569 5.722164 -6.254692 19.689663 -0.762163 -0.327431 -6.000106 0.873454 -2.684434 -21.529810 -8.348043 -7.376154 20.233105 0.341772 1.707339 -7.461946 -6.715817 8.826772 
-24.929895 49.973564 190.500244 17.367863 -2.292936 5.972323 0.000000 0.000000 0.000000 21.386469 -4.775614 -2.297124 17.060276 -4.979542 -0.206002 -24.612963 1.475272 1.340852 -6.082582 -19.044107 18.733000 -42.540356 -34.642002 21.383377 -38.788338 9.448876 7.195364 19.703337 -8.308403 -29.086815 6.192789 6.241847 19.951916 41.388084 39.350967 48.903244 105.284538 -4.258532 13.773352 -46.110947 62.150650 -62.823883 -28.014666 5.516919 -6.220037 19.649967 -0.797975 -0.311674 -6.302795 1.010882 -2.762566 -21.951508 -8.602725 -7.293220 20.487000 0.332000 1.716415 -7.636661 -6.638958 8.975672 
-24.797209 49.927826 190.475891 17.347513 -2.227930 5.798166 0.000000 0.000000 0.000000 21.469059 -4.900298 -2.383608 17.208183 -5.071612 -0.212821 -24.544882 1.514185 1.423251 -6.105373 -19.192371 18.793455 -42.253532 -34.773861 21.594961 -37.549965 9.469383 7.047861 19.433214 -8.065353 -29.624123 6.139845 6.109519 20.042318 41.356167 39.448589 48.977074 105.230064 -4.381181 13.740894 -46.041103 62.320934 -62.757637 -27.951832 5.399467 -6.044438 19.699799 -0.837030 -0.251828 -6.662649 1.086659 -2.846273 -22.125620 -8.787543 -6.995574 20.808348 0.331895 1.749345 -7.857171 -6.730934 9.141507 
-24.671511 49.873558 190.483505 17.082998 -2.175100 5.591256 0.000000 0.000000 0.000000 21.269222 -5.080065 -2.374538 17.373518 -5.132010 -0.109677 -24.174503 1.622756 1.540761 -6.116394 -19.328270 18.565422 -42.038734 -34.847084 22.914598 -35.757984 9.487281 6.843175 19.069611 -7.607158 -31.098438 6.223352 5.930817 19.859079 41.528824 39.238636 49.143860 105.326736 -4.538028 13.884307 -45.839817 62.167931 -62.668884 -27.633841 5.360829 -5.735318 19.796753 -0.889146 -0.225517 -7.178481 1.036725 -2.922319 -22.066336 -8.855434 -6.423281 21.149458 0.312396 1.779866 -8.095775 -7.080301 9.327565 
-24.547400 49.817410 190.516525 16.594082 -2.152639 5.442393 0.000000 0.000000 0.000000 20.949011 -5.182287 -2.352329 17.555523 -5.114008 0.021350 -23.657732 1.751948 1.680291 -6.176116 -19.399248 18.208117 -42.064037 -34.945160 24.929514 -33.342525 9.506443 6.572958 18.458483 -7.127903 -33.497810 6.314485 5.788950 19.543470 41.775269 38.877773 49.245171 105.482788 -4.634634 14.196553 -45.697632 61.838547 -62.714081 -27.051420 5.360264 -5.441707 19.884123 -0.918389 -0.214739 -7.654442 0.981899 -3.001408 -21.722895 -8.903418 -5.807341 21.490797 0.302695 1.802222 -8.239525 -7.512346 9.543528 
-24.417221 49.763618 190.568573 15.919022 -2.084903 5.342687 0.000000 0.000000 0.000000 20.550671 -5.296585 -2.353679 17.717211 -5.076530 0.120244 -23.111868 1.910544 1.818369 -6.278577 -19.463863 17.787540 -42.413322 -35.036404 26.978516 -30.400824 9.520025 6.224980 17.392803 -6.865796 -36.449665 6.389947 5.639174 19.166845 42.041595 38.568993 49.325302 105.566879 -4.745587 14.577682 -45.695980 61.606682 -62.976952 -26.240252 5.330841 -5.090865 19.943607 -0.947671 -0.163699 -8.089841 0.882685 -3.069270 -21.166464 -8.991526 -5.227743 21.793341 0.302556 1.814830 -8.374853 -7.870741 9.770774 
-24.280098 49.712723 190.634216 15.135684 -1.923132 5.251376 0.000000 0.000000 0.000000 20.152906 -5.429485 -2.389523 17.820446 -5.091911 0.239835 -22.585358 2.049978 2.000758 -6.412806 -19.555767 17.347679 -43.063751 -35.067924 28.512177 -27.272444 9.505237 5.862668 15.810948 -6.983102 -39.462093 6.439584 5.458135 18.781824 42.273651 38.365204 49.398014 105.574493 -4.872064 14.967710 -45.866482 61.443569 -63.398064 -25.223375 5.224370 -4.723212 19.855499 -0.967146 -0.143077 -8.476195 0.831562 -3.158608 -20.431984 -9.224621 -4.886556 22.076248 0.312404 1.828387 -8.532926 -8.003211 9.983467 
-24.144615 49.665100 190.709244 14.283648 -1.684576 5.274212 0.000000 0.000000 0.000000 19.775335 -5.580431 -2.480900 17.836094 -5.171910 0.362925 -22.204742 2.111092 2.240256 -6.590621 -19.674189 16.921240 -43.910236 -35.006016 29.297062 -24.412262 9.477959 5.538888 13.901102 -7.395108 -42.075787 6.439432 5.252613 18.414619 42.410168 38.228111 49.495644 105.581963 -4.960492 15.333341 -46.176159 61.156105 -63.835175 -24.078100 4.979811 -4.506104 19.591492 -1.015806 -0.079535 -8.805005 0.808828 -3.234878 -19.549454 -9.579412 -4.869965 22.301203 0.331988 1.821824 -8.772466 -7.884736 10.158566 
-24.021614 49.622978 190.789703 13.461213 -1.415120 5.344767 0.000000 0.000000 0.000000 19.427134 -5.730755 -2.584018 17.679455 -5.399280 0.546119 -21.999218 2.074112 2.556084 -6.771500 -19.807083 16.519884 -44.766914 -34.801640 29.618750 -22.085897 9.451146 5.267837 11.990618 -7.896302 -44.251568 6.423873 5.037817 18.077293 42.480007 38.050800 49.568199 105.675377 -4.896810 15.532297 -46.518246 60.689980 -64.131874 -22.864529 4.656948 -4.353070 19.219296 -1.032093 -0.064095 -9.095621 0.818206 -3.317659 -18.606934 -9.976647 -5.068427 22.446745 0.341730 1.849174 -9.076637 -7.695254 10.258552 
-23.918665 49.589821 190.868942 12.658854 -1.152925 5.453813 0.000000 0.000000 0.000000 19.108324 -5.880422 -2.677646 17.330971 -5.717834 0.746701 -22.027540 1.948219 2.846518 -6.926108 -19.935730 16.152369 -45.511818 -34.497612 29.871170 -20.453747 9.417936 5.085153 10.530026 -8.273908 -46.132347 6.420459 4.833384 17.769506 42.507790 37.775360 49.563316 105.901016 -4.645567 15.500686 -46.638668 60.005836 -64.072540 -21.699371 4.334286 -4.302372 18.826574 -1.071578 -0.041064 -9.339314 0.871046 -3.390528 -17.651979 -10.358459 -5.354989 22.533730 0.351415 1.874063 -9.337847 -7.472673 10.322341 
